<?xml version="1.0" encoding="UTF-8" standalone="no"?>
<!-- Created with Inkscape (http://www.inkscape.org/) -->

<svg
   xmlns:osb="http://www.openswatchbook.org/uri/2009/osb"
   xmlns:dc="http://purl.org/dc/elements/1.1/"
   xmlns:cc="http://creativecommons.org/ns#"
   xmlns:rdf="http://www.w3.org/1999/02/22-rdf-syntax-ns#"
   xmlns:svg="http://www.w3.org/2000/svg"
   xmlns="http://www.w3.org/2000/svg"
   xmlns:sodipodi="http://sodipodi.sourceforge.net/DTD/sodipodi-0.dtd"
   xmlns:inkscape="http://www.inkscape.org/namespaces/inkscape"
   width="11in"
   height="8.5in"
   viewBox="0 0 990 765"
   id="svg2"
   version="1.1"
   inkscape:version="0.91 r13725"
   sodipodi:docname="05_03_Strokes.svg">
  <defs
     id="defs4">
    <linearGradient
       id="linearGradient6984"
       osb:paint="solid">
      <stop
         style="stop-color:#2b1100;stop-opacity:0.40392157;"
         offset="0"
         id="stop6986" />
    </linearGradient>
    <linearGradient
       id="linearGradient5846"
       osb:paint="solid">
      <stop
         style="stop-color:#2b0000;stop-opacity:1;"
         offset="0"
         id="stop5848" />
    </linearGradient>
  </defs>
  <sodipodi:namedview
     id="base"
     pagecolor="#ffffff"
     bordercolor="#666666"
     borderopacity="1.0"
     inkscape:pageopacity="0.0"
     inkscape:pageshadow="2"
     inkscape:zoom="0.8496732"
     inkscape:cx="495"
     inkscape:cy="382.5"
     inkscape:document-units="px"
     inkscape:current-layer="layer1"
     showgrid="false"
     units="in"
     inkscape:window-width="1360"
     inkscape:window-height="745"
     inkscape:window-x="-8"
     inkscape:window-y="-8"
     inkscape:window-maximized="1" />
  <metadata
     id="metadata7">
    <rdf:RDF>
      <cc:Work
         rdf:about="">
        <dc:format>image/svg+xml</dc:format>
        <dc:type
           rdf:resource="http://purl.org/dc/dcmitype/StillImage" />
        <dc:title />
      </cc:Work>
    </rdf:RDF>
  </metadata>
  <g
     inkscape:label="Layer 1"
     inkscape:groupmode="layer"
     id="layer1"
     transform="translate(0,-287.3622)">
    <rect
       style="opacity:1;fill:#ff6600;fill-opacity:1;stroke:none;stroke-width:1;stroke-linecap:butt;stroke-linejoin:miter;stroke-miterlimit:4;stroke-dasharray:none;stroke-dashoffset:4.5;stroke-opacity:1"
       id="rect6990"
       width="450.76154"
       height="444.87692"
       x="268.33847"
       y="348.91605" />
    <path
       inkscape:connector-curvature="0"
       id="path7004"
       d="m 256.8307,897.00835 469.59231,0"
       style="fill:none;fill-rule:evenodd;stroke:#000000;stroke-width:1;stroke-linecap:butt;stroke-linejoin:miter;stroke-miterlimit:4;stroke-dasharray:none;stroke-dashoffset:11.2;stroke-opacity:1" />
    <path
       inkscape:connector-curvature="0"
       id="path118"
       style="fill:#ffffff;fill-opacity:1;fill-rule:evenodd;stroke:none"
       d="m 428.37072,682.54183 25.38393,0 7.88197,-37.27008 64.36642,0 7.88418,37.27008 25.37737,0 c 2.2272,0 4.04485,1.82255 4.04485,4.04649 l 0,5.65208 c 0,2.22395 -1.81765,4.04107 -4.04485,4.04107 l -130.89387,0 c -2.22503,0 -4.04267,-1.81712 -4.04267,-4.04107 l 0,-5.65208 c 0,-2.22394 1.81764,-4.04649 4.04267,-4.04649" />
    <path
       inkscape:connector-curvature="0"
       id="path120"
       style="fill:#cdccca;fill-opacity:1;fill-rule:evenodd;stroke:none"
       d="m 466.23639,645.27175 59.76665,0 7.88418,37.27008 25.37737,0 c 2.2272,0 4.04485,1.82255 4.04485,4.04649 l 0,5.65208 c 0,2.22395 -1.81765,4.04107 -4.04485,4.04107 l -51.69535,0 -46.82489,-46.77338 5.49204,-4.23634" />
    <path
       inkscape:connector-curvature="0"
       id="path122"
       style="fill:#ffffff;fill-opacity:1;fill-rule:evenodd;stroke:none"
       d="m 355.60486,649.50809 276.42993,0 c 4.95348,0 9.00266,-4.30686 9.00266,-9.56297 l 0,-169.04701 c 0,-5.2561 -4.04918,-9.56297 -9.00266,-9.56297 l -276.42993,0 c -4.95126,0 -9.00266,4.30687 -9.00266,9.56297 l 0,169.04701 c 0,5.25611 4.0514,9.56297 9.00266,9.56297" />
    <path
       inkscape:connector-curvature="0"
       id="path124"
       style="fill:#f36717;fill-opacity:1;fill-rule:evenodd;stroke:none"
       d="m 358.06097,623.6615 271.5221,0 c 2.29281,0 4.168,-1.87679 4.168,-4.17668 l 0,-142.91293 c 0,-2.29446 -1.87519,-4.17126 -4.168,-4.17126 l -271.5221,0 c -2.2972,0 -4.17234,1.8768 -4.17234,4.17126 l 0,142.91293 c 0,2.29989 1.87514,4.17668 4.17234,4.17668" />
    <path
       inkscape:connector-curvature="0"
       id="path126"
       style="fill:#f36717;fill-opacity:1;fill-rule:evenodd;stroke:none"
       d="m 493.81983,640.75334 c 2.64868,0 4.80372,-2.15886 4.80372,-4.80047 0,-2.65246 -2.15504,-4.80589 -4.80372,-4.80589 -2.64648,0 -4.80156,2.15343 -4.80156,4.80589 0,2.64161 2.15508,4.80047 4.80156,4.80047" />
  </g>
</svg>
